<?xml version="1.0" encoding="UTF-8" standalone="no"?>
<!DOCTYPE svg PUBLIC "-//W3C//DTD SVG 1.1//EN"
 "http://www.w3.org/Graphics/SVG/1.1/DTD/svg11.dtd">
<!-- Generated by graphviz version 2.40.1 (20161225.0304)
 -->
<!-- Title: mytree Pages: 1 -->
<svg width="1048pt" height="260pt"
 viewBox="0.00 0.00 1047.55 260.00" xmlns="http://www.w3.org/2000/svg" xmlns:xlink="http://www.w3.org/1999/xlink">
<g id="graph0" class="graph" transform="scale(1 1) rotate(0) translate(4 256)">
<title>mytree</title>
<polygon fill="#ffffff" stroke="transparent" points="-4,4 -4,-256 1043.5465,-256 1043.5465,4 -4,4"/>
<!-- Queen Elizabeth II -->
<g id="node1" class="node">
<title>Queen Elizabeth II</title>
<ellipse fill="none" stroke="#000000" cx="486.0934" cy="-234" rx="83.9277" ry="18"/>
<text text-anchor="middle" x="486.0934" y="-229.8" font-family="Times,serif" font-size="14.00" fill="#000000">Queen Elizabeth II</text>
</g>
<!-- Anne -->
<g id="node2" class="node">
<title>Anne</title>
<ellipse fill="none" stroke="#000000" cx="263.0934" cy="-162" rx="31.9031" ry="18"/>
<text text-anchor="middle" x="263.0934" y="-157.8" font-family="Times,serif" font-size="14.00" fill="#000000">Anne</text>
</g>
<!-- Queen Elizabeth II&#45;&gt;Anne -->
<g id="edge4" class="edge">
<title>Queen Elizabeth II&#45;&gt;Anne</title>
<path fill="none" stroke="#000000" d="M439.6168,-218.9941C398.3711,-205.6771 338.8782,-186.4686 300.5977,-174.109"/>
<polygon fill="#000000" stroke="#000000" points="301.4633,-170.7106 290.8716,-170.9687 299.3125,-177.372 301.4633,-170.7106"/>
</g>
<!-- Edward -->
<g id="node3" class="node">
<title>Edward</title>
<ellipse fill="none" stroke="#000000" cx="436.0934" cy="-162" rx="41.1316" ry="18"/>
<text text-anchor="middle" x="436.0934" y="-157.8" font-family="Times,serif" font-size="14.00" fill="#000000">Edward</text>
</g>
<!-- Queen Elizabeth II&#45;&gt;Edward -->
<g id="edge3" class="edge">
<title>Queen Elizabeth II&#45;&gt;Edward</title>
<path fill="none" stroke="#000000" d="M473.4763,-215.8314C467.6008,-207.3707 460.5046,-197.1521 454.0805,-187.9014"/>
<polygon fill="#000000" stroke="#000000" points="456.7679,-185.635 448.1891,-179.4177 451.0183,-189.6278 456.7679,-185.635"/>
</g>
<!-- Andrew -->
<g id="node4" class="node">
<title>Andrew</title>
<ellipse fill="none" stroke="#000000" cx="537.0934" cy="-162" rx="42.2758" ry="18"/>
<text text-anchor="middle" x="537.0934" y="-157.8" font-family="Times,serif" font-size="14.00" fill="#000000">Andrew</text>
</g>
<!-- Queen Elizabeth II&#45;&gt;Andrew -->
<g id="edge2" class="edge">
<title>Queen Elizabeth II&#45;&gt;Andrew</title>
<path fill="none" stroke="#000000" d="M498.7002,-216.2022C504.7978,-207.5938 512.2302,-197.1011 518.9255,-187.6488"/>
<polygon fill="#000000" stroke="#000000" points="521.8836,-189.5279 524.8077,-179.3446 516.1714,-185.4818 521.8836,-189.5279"/>
</g>
<!-- Charles -->
<g id="node5" class="node">
<title>Charles</title>
<ellipse fill="none" stroke="#000000" cx="733.0934" cy="-162" rx="40.5654" ry="18"/>
<text text-anchor="middle" x="733.0934" y="-157.8" font-family="Times,serif" font-size="14.00" fill="#000000">Charles</text>
</g>
<!-- Queen Elizabeth II&#45;&gt;Charles -->
<g id="edge1" class="edge">
<title>Queen Elizabeth II&#45;&gt;Charles</title>
<path fill="none" stroke="#000000" d="M536.0776,-219.4297C580.9705,-206.3435 646.2404,-187.3175 689.169,-174.8039"/>
<polygon fill="#000000" stroke="#000000" points="690.4199,-178.085 699.0408,-171.9263 688.4609,-171.3647 690.4199,-178.085"/>
</g>
<!-- Zara -->
<g id="node6" class="node">
<title>Zara</title>
<ellipse fill="none" stroke="#000000" cx="151.0934" cy="-90" rx="28.9501" ry="18"/>
<text text-anchor="middle" x="151.0934" y="-85.8" font-family="Times,serif" font-size="14.00" fill="#000000">Zara</text>
</g>
<!-- Anne&#45;&gt;Zara -->
<g id="edge6" class="edge">
<title>Anne&#45;&gt;Zara</title>
<path fill="none" stroke="#000000" d="M242.0271,-148.4574C224.4429,-137.1532 199.2074,-120.9304 179.78,-108.4414"/>
<polygon fill="#000000" stroke="#000000" points="181.6154,-105.4605 171.3109,-102.997 177.8301,-111.3487 181.6154,-105.4605"/>
</g>
<!-- Peter -->
<g id="node7" class="node">
<title>Peter</title>
<ellipse fill="none" stroke="#000000" cx="263.0934" cy="-90" rx="30.7539" ry="18"/>
<text text-anchor="middle" x="263.0934" y="-85.8" font-family="Times,serif" font-size="14.00" fill="#000000">Peter</text>
</g>
<!-- Anne&#45;&gt;Peter -->
<g id="edge5" class="edge">
<title>Anne&#45;&gt;Peter</title>
<path fill="none" stroke="#000000" d="M263.0934,-143.8314C263.0934,-136.131 263.0934,-126.9743 263.0934,-118.4166"/>
<polygon fill="#000000" stroke="#000000" points="266.5935,-118.4132 263.0934,-108.4133 259.5935,-118.4133 266.5935,-118.4132"/>
</g>
<!-- Louise -->
<g id="node8" class="node">
<title>Louise</title>
<ellipse fill="none" stroke="#000000" cx="349.0934" cy="-90" rx="37.1386" ry="18"/>
<text text-anchor="middle" x="349.0934" y="-85.8" font-family="Times,serif" font-size="14.00" fill="#000000">Louise</text>
</g>
<!-- Edward&#45;&gt;Louise -->
<g id="edge8" class="edge">
<title>Edward&#45;&gt;Louise</title>
<path fill="none" stroke="#000000" d="M416.7853,-146.0209C404.763,-136.0714 389.1259,-123.1303 375.9101,-112.1931"/>
<polygon fill="#000000" stroke="#000000" points="377.9837,-109.3661 368.0482,-105.6867 373.5207,-114.7588 377.9837,-109.3661"/>
</g>
<!-- James -->
<g id="node9" class="node">
<title>James</title>
<ellipse fill="none" stroke="#000000" cx="439.0934" cy="-90" rx="34.767" ry="18"/>
<text text-anchor="middle" x="439.0934" y="-85.8" font-family="Times,serif" font-size="14.00" fill="#000000">James</text>
</g>
<!-- Edward&#45;&gt;James -->
<g id="edge7" class="edge">
<title>Edward&#45;&gt;James</title>
<path fill="none" stroke="#000000" d="M436.8505,-143.8314C437.1713,-136.131 437.5528,-126.9743 437.9094,-118.4166"/>
<polygon fill="#000000" stroke="#000000" points="441.4068,-118.5503 438.3262,-108.4133 434.4128,-118.2589 441.4068,-118.5503"/>
</g>
<!-- Eugenie -->
<g id="node10" class="node">
<title>Eugenie</title>
<ellipse fill="none" stroke="#000000" cx="534.0934" cy="-90" rx="42.8577" ry="18"/>
<text text-anchor="middle" x="534.0934" y="-85.8" font-family="Times,serif" font-size="14.00" fill="#000000">Eugenie</text>
</g>
<!-- Andrew&#45;&gt;Eugenie -->
<g id="edge10" class="edge">
<title>Andrew&#45;&gt;Eugenie</title>
<path fill="none" stroke="#000000" d="M536.3364,-143.8314C536.0156,-136.131 535.634,-126.9743 535.2775,-118.4166"/>
<polygon fill="#000000" stroke="#000000" points="538.774,-118.2589 534.8606,-108.4133 531.7801,-118.5503 538.774,-118.2589"/>
</g>
<!-- Beatrice -->
<g id="node11" class="node">
<title>Beatrice</title>
<ellipse fill="none" stroke="#000000" cx="638.0934" cy="-90" rx="43.4124" ry="18"/>
<text text-anchor="middle" x="638.0934" y="-85.8" font-family="Times,serif" font-size="14.00" fill="#000000">Beatrice</text>
</g>
<!-- Andrew&#45;&gt;Beatrice -->
<g id="edge9" class="edge">
<title>Andrew&#45;&gt;Beatrice</title>
<path fill="none" stroke="#000000" d="M559.0089,-146.3771C573.303,-136.1873 592.1528,-122.7498 607.864,-111.5497"/>
<polygon fill="#000000" stroke="#000000" points="610.1096,-114.2472 616.2207,-105.5924 606.0462,-108.5473 610.1096,-114.2472"/>
</g>
<!-- Harry -->
<g id="node12" class="node">
<title>Harry</title>
<ellipse fill="none" stroke="#000000" cx="733.0934" cy="-90" rx="33.6054" ry="18"/>
<text text-anchor="middle" x="733.0934" y="-85.8" font-family="Times,serif" font-size="14.00" fill="#000000">Harry</text>
</g>
<!-- Charles&#45;&gt;Harry -->
<g id="edge12" class="edge">
<title>Charles&#45;&gt;Harry</title>
<path fill="none" stroke="#000000" d="M733.0934,-143.8314C733.0934,-136.131 733.0934,-126.9743 733.0934,-118.4166"/>
<polygon fill="#000000" stroke="#000000" points="736.5935,-118.4132 733.0934,-108.4133 729.5935,-118.4133 736.5935,-118.4132"/>
</g>
<!-- William -->
<g id="node13" class="node">
<title>William</title>
<ellipse fill="none" stroke="#000000" cx="850.0934" cy="-90" rx="42.8712" ry="18"/>
<text text-anchor="middle" x="850.0934" y="-85.8" font-family="Times,serif" font-size="14.00" fill="#000000">William</text>
</g>
<!-- Charles&#45;&gt;William -->
<g id="edge11" class="edge">
<title>Charles&#45;&gt;William</title>
<path fill="none" stroke="#000000" d="M757.0525,-147.256C774.3669,-136.6009 797.9708,-122.0755 817.0712,-110.3214"/>
<polygon fill="#000000" stroke="#000000" points="819.0821,-113.1936 825.7644,-104.9717 815.4134,-107.2319 819.0821,-113.1936"/>
</g>
<!-- Lucas -->
<g id="node14" class="node">
<title>Lucas</title>
<ellipse fill="none" stroke="#000000" cx="34.0934" cy="-18" rx="34.1871" ry="18"/>
<text text-anchor="middle" x="34.0934" y="-13.8" font-family="Times,serif" font-size="14.00" fill="#000000">Lucas</text>
</g>
<!-- Zara&#45;&gt;Lucas -->
<g id="edge15" class="edge">
<title>Zara&#45;&gt;Lucas</title>
<path fill="none" stroke="#000000" d="M130.4455,-77.2936C112.3874,-66.1809 85.8964,-49.8788 65.2596,-37.1792"/>
<polygon fill="#000000" stroke="#000000" points="66.8799,-34.0667 56.5289,-31.8064 63.2111,-40.0283 66.8799,-34.0667"/>
</g>
<!-- Lena -->
<g id="node15" class="node">
<title>Lena</title>
<ellipse fill="none" stroke="#000000" cx="116.0934" cy="-18" rx="30.1765" ry="18"/>
<text text-anchor="middle" x="116.0934" y="-13.8" font-family="Times,serif" font-size="14.00" fill="#000000">Lena</text>
</g>
<!-- Zara&#45;&gt;Lena -->
<g id="edge14" class="edge">
<title>Zara&#45;&gt;Lena</title>
<path fill="none" stroke="#000000" d="M142.6209,-72.5708C138.5668,-64.2309 133.6225,-54.0598 129.1059,-44.7686"/>
<polygon fill="#000000" stroke="#000000" points="132.129,-42.9817 124.6092,-35.5182 125.8334,-46.0421 132.129,-42.9817"/>
</g>
<!-- Mia -->
<g id="node16" class="node">
<title>Mia</title>
<ellipse fill="none" stroke="#000000" cx="191.0934" cy="-18" rx="27" ry="18"/>
<text text-anchor="middle" x="191.0934" y="-13.8" font-family="Times,serif" font-size="14.00" fill="#000000">Mia</text>
</g>
<!-- Zara&#45;&gt;Mia -->
<g id="edge13" class="edge">
<title>Zara&#45;&gt;Mia</title>
<path fill="none" stroke="#000000" d="M160.5729,-72.937C165.4049,-64.2393 171.3824,-53.4799 176.763,-43.7948"/>
<polygon fill="#000000" stroke="#000000" points="179.8851,-45.3819 181.682,-34.9405 173.766,-41.9823 179.8851,-45.3819"/>
</g>
<!-- Isla -->
<g id="node17" class="node">
<title>Isla</title>
<ellipse fill="none" stroke="#000000" cx="263.0934" cy="-18" rx="27" ry="18"/>
<text text-anchor="middle" x="263.0934" y="-13.8" font-family="Times,serif" font-size="14.00" fill="#000000">Isla</text>
</g>
<!-- Peter&#45;&gt;Isla -->
<g id="edge17" class="edge">
<title>Peter&#45;&gt;Isla</title>
<path fill="none" stroke="#000000" d="M263.0934,-71.8314C263.0934,-64.131 263.0934,-54.9743 263.0934,-46.4166"/>
<polygon fill="#000000" stroke="#000000" points="266.5935,-46.4132 263.0934,-36.4133 259.5935,-46.4133 266.5935,-46.4132"/>
</g>
<!-- Savannah -->
<g id="node18" class="node">
<title>Savannah</title>
<ellipse fill="none" stroke="#000000" cx="357.0934" cy="-18" rx="48.6578" ry="18"/>
<text text-anchor="middle" x="357.0934" y="-13.8" font-family="Times,serif" font-size="14.00" fill="#000000">Savannah</text>
</g>
<!-- Peter&#45;&gt;Savannah -->
<g id="edge16" class="edge">
<title>Peter&#45;&gt;Savannah</title>
<path fill="none" stroke="#000000" d="M282.1157,-75.4297C295.2424,-65.3753 312.9469,-51.8144 327.8556,-40.3949"/>
<polygon fill="#000000" stroke="#000000" points="329.9932,-43.1664 335.8038,-34.307 325.7367,-37.6092 329.9932,-43.1664"/>
</g>
<!-- August -->
<g id="node19" class="node">
<title>August</title>
<ellipse fill="none" stroke="#000000" cx="534.0934" cy="-18" rx="38.8652" ry="18"/>
<text text-anchor="middle" x="534.0934" y="-13.8" font-family="Times,serif" font-size="14.00" fill="#000000">August</text>
</g>
<!-- Eugenie&#45;&gt;August -->
<g id="edge18" class="edge">
<title>Eugenie&#45;&gt;August</title>
<path fill="none" stroke="#000000" d="M534.0934,-71.8314C534.0934,-64.131 534.0934,-54.9743 534.0934,-46.4166"/>
<polygon fill="#000000" stroke="#000000" points="537.5935,-46.4132 534.0934,-36.4133 530.5935,-46.4133 537.5935,-46.4132"/>
</g>
<!-- Archie -->
<g id="node20" class="node">
<title>Archie</title>
<ellipse fill="none" stroke="#000000" cx="710.0934" cy="-18" rx="37.1174" ry="18"/>
<text text-anchor="middle" x="710.0934" y="-13.8" font-family="Times,serif" font-size="14.00" fill="#000000">Archie</text>
</g>
<!-- Harry&#45;&gt;Archie -->
<g id="edge19" class="edge">
<title>Harry&#45;&gt;Archie</title>
<path fill="none" stroke="#000000" d="M727.408,-72.2022C724.8371,-64.1541 721.74,-54.4588 718.8803,-45.5067"/>
<polygon fill="#000000" stroke="#000000" points="722.1702,-44.3033 715.7931,-35.8425 715.5021,-46.4334 722.1702,-44.3033"/>
</g>
<!-- Louis -->
<g id="node21" class="node">
<title>Louis</title>
<ellipse fill="none" stroke="#000000" cx="798.0934" cy="-18" rx="33.0643" ry="18"/>
<text text-anchor="middle" x="798.0934" y="-13.8" font-family="Times,serif" font-size="14.00" fill="#000000">Louis</text>
</g>
<!-- William&#45;&gt;Louis -->
<g id="edge22" class="edge">
<title>William&#45;&gt;Louis</title>
<path fill="none" stroke="#000000" d="M837.5057,-72.5708C831.0893,-63.6866 823.1722,-52.7245 816.1211,-42.9615"/>
<polygon fill="#000000" stroke="#000000" points="818.8995,-40.8305 810.2072,-34.7729 813.2248,-44.929 818.8995,-40.8305"/>
</g>
<!-- Charlotte -->
<g id="node22" class="node">
<title>Charlotte</title>
<ellipse fill="none" stroke="#000000" cx="896.0934" cy="-18" rx="46.9458" ry="18"/>
<text text-anchor="middle" x="896.0934" y="-13.8" font-family="Times,serif" font-size="14.00" fill="#000000">Charlotte</text>
</g>
<!-- William&#45;&gt;Charlotte -->
<g id="edge21" class="edge">
<title>William&#45;&gt;Charlotte</title>
<path fill="none" stroke="#000000" d="M861.2287,-72.5708C866.6692,-64.0553 873.3293,-53.6308 879.3654,-44.183"/>
<polygon fill="#000000" stroke="#000000" points="882.4667,-45.8296 884.9012,-35.5182 876.5678,-42.0608 882.4667,-45.8296"/>
</g>
<!-- George -->
<g id="node23" class="node">
<title>George</title>
<ellipse fill="none" stroke="#000000" cx="1000.0934" cy="-18" rx="39.4061" ry="18"/>
<text text-anchor="middle" x="1000.0934" y="-13.8" font-family="Times,serif" font-size="14.00" fill="#000000">George</text>
</g>
<!-- William&#45;&gt;George -->
<g id="edge20" class="edge">
<title>William&#45;&gt;George</title>
<path fill="none" stroke="#000000" d="M878.3073,-76.4574C902.4185,-64.884 937.2708,-48.1548 963.5196,-35.5555"/>
<polygon fill="#000000" stroke="#000000" points="965.2644,-38.6003 972.7651,-31.1176 962.2352,-32.2896 965.2644,-38.6003"/>
</g>
</g>
</svg>
