<?xml version="1.0" encoding="UTF-8" standalone="no"?>
<!DOCTYPE svg PUBLIC "-//W3C//DTD SVG 1.1//EN"
 "http://www.w3.org/Graphics/SVG/1.1/DTD/svg11.dtd">
<!-- Generated by graphviz version 2.40.1 (20161225.0304)
 -->
<!-- Title: mytree Pages: 1 -->
<svg width="872pt" height="476pt"
 viewBox="0.00 0.00 871.97 476.00" xmlns="http://www.w3.org/2000/svg" xmlns:xlink="http://www.w3.org/1999/xlink">
<g id="graph0" class="graph" transform="scale(1 1) rotate(0) translate(4 472)">
<title>mytree</title>
<polygon fill="#ffffff" stroke="transparent" points="-4,4 -4,-472 867.9666,-472 867.9666,4 -4,4"/>
<!-- Kujet -->
<g id="node1" class="node">
<title>Kujet</title>
<ellipse fill="none" stroke="#000000" cx="568.3217" cy="-450" rx="32.4808" ry="18"/>
<text text-anchor="middle" x="568.3217" y="-445.8" font-family="Times,serif" font-size="14.00" fill="#000000">Kujet</text>
</g>
<!-- Yazem -->
<g id="node2" class="node">
<title>Yazem</title>
<ellipse fill="none" stroke="#000000" cx="568.3217" cy="-378" rx="38.2607" ry="18"/>
<text text-anchor="middle" x="568.3217" y="-373.8" font-family="Times,serif" font-size="14.00" fill="#000000">Yazem</text>
</g>
<!-- Kujet&#45;&gt;Yazem -->
<g id="edge1" class="edge">
<title>Kujet&#45;&gt;Yazem</title>
<path fill="none" stroke="#000000" d="M568.3217,-431.8314C568.3217,-424.131 568.3217,-414.9743 568.3217,-406.4166"/>
<polygon fill="#000000" stroke="#000000" points="571.8218,-406.4132 568.3217,-396.4133 564.8218,-406.4133 571.8218,-406.4132"/>
</g>
<!-- Cofek -->
<g id="node3" class="node">
<title>Cofek</title>
<ellipse fill="none" stroke="#000000" cx="525.3217" cy="-306" rx="34.7709" ry="18"/>
<text text-anchor="middle" x="525.3217" y="-301.8" font-family="Times,serif" font-size="14.00" fill="#000000">Cofek</text>
</g>
<!-- Yazem&#45;&gt;Cofek -->
<g id="edge3" class="edge">
<title>Yazem&#45;&gt;Cofek</title>
<path fill="none" stroke="#000000" d="M557.9126,-360.5708C552.7893,-351.9922 546.5089,-341.4762 540.8335,-331.9732"/>
<polygon fill="#000000" stroke="#000000" points="543.7674,-330.0595 535.635,-323.2687 537.7575,-333.6487 543.7674,-330.0595"/>
</g>
<!-- Belap -->
<g id="node4" class="node">
<title>Belap</title>
<ellipse fill="none" stroke="#000000" cx="612.3217" cy="-306" rx="33.6247" ry="18"/>
<text text-anchor="middle" x="612.3217" y="-301.8" font-family="Times,serif" font-size="14.00" fill="#000000">Belap</text>
</g>
<!-- Yazem&#45;&gt;Belap -->
<g id="edge2" class="edge">
<title>Yazem&#45;&gt;Belap</title>
<path fill="none" stroke="#000000" d="M578.9729,-360.5708C584.2154,-351.9922 590.6418,-341.4762 596.4492,-331.9732"/>
<polygon fill="#000000" stroke="#000000" points="599.5406,-333.6266 601.7687,-323.2687 593.5676,-329.9764 599.5406,-333.6266"/>
</g>
<!-- Wonap -->
<g id="node5" class="node">
<title>Wonap</title>
<ellipse fill="none" stroke="#000000" cx="258.3217" cy="-234" rx="38.8478" ry="18"/>
<text text-anchor="middle" x="258.3217" y="-229.8" font-family="Times,serif" font-size="14.00" fill="#000000">Wonap</text>
</g>
<!-- Cofek&#45;&gt;Wonap -->
<g id="edge5" class="edge">
<title>Cofek&#45;&gt;Wonap</title>
<path fill="none" stroke="#000000" d="M494.4326,-297.6703C447.0061,-284.8812 356.0728,-260.3598 301.9449,-245.7636"/>
<polygon fill="#000000" stroke="#000000" points="302.8516,-242.3831 292.2852,-243.1587 301.029,-249.1417 302.8516,-242.3831"/>
</g>
<!-- Siwev -->
<g id="node6" class="node">
<title>Siwev</title>
<ellipse fill="none" stroke="#000000" cx="525.3217" cy="-234" rx="35.3509" ry="18"/>
<text text-anchor="middle" x="525.3217" y="-229.8" font-family="Times,serif" font-size="14.00" fill="#000000">Siwev</text>
</g>
<!-- Cofek&#45;&gt;Siwev -->
<g id="edge4" class="edge">
<title>Cofek&#45;&gt;Siwev</title>
<path fill="none" stroke="#000000" d="M525.3217,-287.8314C525.3217,-280.131 525.3217,-270.9743 525.3217,-262.4166"/>
<polygon fill="#000000" stroke="#000000" points="528.8218,-262.4132 525.3217,-252.4133 521.8218,-262.4133 528.8218,-262.4132"/>
</g>
<!-- Zogon -->
<g id="node7" class="node">
<title>Zogon</title>
<ellipse fill="none" stroke="#000000" cx="657.3217" cy="-234" rx="36.5014" ry="18"/>
<text text-anchor="middle" x="657.3217" y="-229.8" font-family="Times,serif" font-size="14.00" fill="#000000">Zogon</text>
</g>
<!-- Belap&#45;&gt;Zogon -->
<g id="edge6" class="edge">
<title>Belap&#45;&gt;Zogon</title>
<path fill="none" stroke="#000000" d="M623.215,-288.5708C628.5766,-279.9922 635.1491,-269.4762 641.0885,-259.9732"/>
<polygon fill="#000000" stroke="#000000" points="644.1968,-261.6037 646.5288,-251.2687 638.2608,-257.8937 644.1968,-261.6037"/>
</g>
<!-- Celex -->
<g id="node8" class="node">
<title>Celex</title>
<ellipse fill="none" stroke="#000000" cx="129.3217" cy="-162" rx="33.6247" ry="18"/>
<text text-anchor="middle" x="129.3217" y="-157.8" font-family="Times,serif" font-size="14.00" fill="#000000">Celex</text>
</g>
<!-- Wonap&#45;&gt;Celex -->
<g id="edge8" class="edge">
<title>Wonap&#45;&gt;Celex</title>
<path fill="none" stroke="#000000" d="M233.4492,-220.1177C212.9863,-208.6965 183.8353,-192.4262 161.5793,-180.0042"/>
<polygon fill="#000000" stroke="#000000" points="163.2514,-176.9293 152.8136,-175.1117 159.8398,-183.0416 163.2514,-176.9293"/>
</g>
<!-- Lolec -->
<g id="node9" class="node">
<title>Lolec</title>
<ellipse fill="none" stroke="#000000" cx="258.3217" cy="-162" rx="33.043" ry="18"/>
<text text-anchor="middle" x="258.3217" y="-157.8" font-family="Times,serif" font-size="14.00" fill="#000000">Lolec</text>
</g>
<!-- Wonap&#45;&gt;Lolec -->
<g id="edge7" class="edge">
<title>Wonap&#45;&gt;Lolec</title>
<path fill="none" stroke="#000000" d="M258.3217,-215.8314C258.3217,-208.131 258.3217,-198.9743 258.3217,-190.4166"/>
<polygon fill="#000000" stroke="#000000" points="261.8218,-190.4132 258.3217,-180.4133 254.8218,-190.4133 261.8218,-190.4132"/>
</g>
<!-- Tereh -->
<g id="node10" class="node">
<title>Tereh</title>
<ellipse fill="none" stroke="#000000" cx="482.3217" cy="-162" rx="33.6054" ry="18"/>
<text text-anchor="middle" x="482.3217" y="-157.8" font-family="Times,serif" font-size="14.00" fill="#000000">Tereh</text>
</g>
<!-- Siwev&#45;&gt;Tereh -->
<g id="edge10" class="edge">
<title>Siwev&#45;&gt;Tereh</title>
<path fill="none" stroke="#000000" d="M514.9126,-216.5708C509.7893,-207.9922 503.5089,-197.4762 497.8335,-187.9732"/>
<polygon fill="#000000" stroke="#000000" points="500.7674,-186.0595 492.635,-179.2687 494.7575,-189.6487 500.7674,-186.0595"/>
</g>
<!-- Bofav -->
<g id="node11" class="node">
<title>Bofav</title>
<ellipse fill="none" stroke="#000000" cx="572.3217" cy="-162" rx="34.7709" ry="18"/>
<text text-anchor="middle" x="572.3217" y="-157.8" font-family="Times,serif" font-size="14.00" fill="#000000">Bofav</text>
</g>
<!-- Siwev&#45;&gt;Bofav -->
<g id="edge9" class="edge">
<title>Siwev&#45;&gt;Bofav</title>
<path fill="none" stroke="#000000" d="M536.6991,-216.5708C542.3568,-207.9038 549.3053,-197.2592 555.5587,-187.6796"/>
<polygon fill="#000000" stroke="#000000" points="558.5137,-189.5557 561.0491,-179.2687 552.652,-185.7293 558.5137,-189.5557"/>
</g>
<!-- Sisoc -->
<g id="node12" class="node">
<title>Sisoc</title>
<ellipse fill="none" stroke="#000000" cx="701.3217" cy="-162" rx="31.9185" ry="18"/>
<text text-anchor="middle" x="701.3217" y="-157.8" font-family="Times,serif" font-size="14.00" fill="#000000">Sisoc</text>
</g>
<!-- Zogon&#45;&gt;Sisoc -->
<g id="edge11" class="edge">
<title>Zogon&#45;&gt;Sisoc</title>
<path fill="none" stroke="#000000" d="M667.9729,-216.5708C673.2154,-207.9922 679.6418,-197.4762 685.4492,-187.9732"/>
<polygon fill="#000000" stroke="#000000" points="688.5406,-189.6266 690.7687,-179.2687 682.5676,-185.9764 688.5406,-189.6266"/>
</g>
<!-- Dixen -->
<g id="node13" class="node">
<title>Dixen</title>
<ellipse fill="none" stroke="#000000" cx="39.3217" cy="-90" rx="34.7709" ry="18"/>
<text text-anchor="middle" x="39.3217" y="-85.8" font-family="Times,serif" font-size="14.00" fill="#000000">Dixen</text>
</g>
<!-- Celex&#45;&gt;Dixen -->
<g id="edge13" class="edge">
<title>Celex&#45;&gt;Dixen</title>
<path fill="none" stroke="#000000" d="M110.2351,-146.7307C97.4675,-136.5166 80.4783,-122.9252 66.3297,-111.6064"/>
<polygon fill="#000000" stroke="#000000" points="68.3761,-108.7613 58.3809,-105.2473 64.0032,-114.2274 68.3761,-108.7613"/>
</g>
<!-- Yevoz -->
<g id="node14" class="node">
<title>Yevoz</title>
<ellipse fill="none" stroke="#000000" cx="129.3217" cy="-90" rx="36.478" ry="18"/>
<text text-anchor="middle" x="129.3217" y="-85.8" font-family="Times,serif" font-size="14.00" fill="#000000">Yevoz</text>
</g>
<!-- Celex&#45;&gt;Yevoz -->
<g id="edge12" class="edge">
<title>Celex&#45;&gt;Yevoz</title>
<path fill="none" stroke="#000000" d="M129.3217,-143.8314C129.3217,-136.131 129.3217,-126.9743 129.3217,-118.4166"/>
<polygon fill="#000000" stroke="#000000" points="132.8218,-118.4132 129.3217,-108.4133 125.8218,-118.4133 132.8218,-118.4132"/>
</g>
<!-- Pelis -->
<g id="node15" class="node">
<title>Pelis</title>
<ellipse fill="none" stroke="#000000" cx="215.3217" cy="-90" rx="29.63" ry="18"/>
<text text-anchor="middle" x="215.3217" y="-85.8" font-family="Times,serif" font-size="14.00" fill="#000000">Pelis</text>
</g>
<!-- Lolec&#45;&gt;Pelis -->
<g id="edge15" class="edge">
<title>Lolec&#45;&gt;Pelis</title>
<path fill="none" stroke="#000000" d="M247.9126,-144.5708C242.7893,-135.9922 236.5089,-125.4762 230.8335,-115.9732"/>
<polygon fill="#000000" stroke="#000000" points="233.7674,-114.0595 225.635,-107.2687 227.7575,-117.6487 233.7674,-114.0595"/>
</g>
<!-- Yugoc -->
<g id="node16" class="node">
<title>Yugoc</title>
<ellipse fill="none" stroke="#000000" cx="300.3217" cy="-90" rx="36.5613" ry="18"/>
<text text-anchor="middle" x="300.3217" y="-85.8" font-family="Times,serif" font-size="14.00" fill="#000000">Yugoc</text>
</g>
<!-- Lolec&#45;&gt;Yugoc -->
<g id="edge14" class="edge">
<title>Lolec&#45;&gt;Yugoc</title>
<path fill="none" stroke="#000000" d="M268.4888,-144.5708C273.4562,-136.0553 279.5371,-125.6308 285.0483,-116.183"/>
<polygon fill="#000000" stroke="#000000" points="288.0872,-117.9196 290.1028,-107.5182 282.0408,-114.3925 288.0872,-117.9196"/>
</g>
<!-- Dokak -->
<g id="node17" class="node">
<title>Dokak</title>
<ellipse fill="none" stroke="#000000" cx="393.3217" cy="-90" rx="36.5613" ry="18"/>
<text text-anchor="middle" x="393.3217" y="-85.8" font-family="Times,serif" font-size="14.00" fill="#000000">Dokak</text>
</g>
<!-- Tereh&#45;&gt;Dokak -->
<g id="edge17" class="edge">
<title>Tereh&#45;&gt;Dokak</title>
<path fill="none" stroke="#000000" d="M463.4471,-146.7307C450.9068,-136.5856 434.2478,-123.1087 420.3136,-111.8361"/>
<polygon fill="#000000" stroke="#000000" points="422.4518,-109.064 412.476,-105.4956 418.0492,-114.5061 422.4518,-109.064"/>
</g>
<!-- Dafec -->
<g id="node18" class="node">
<title>Dafec</title>
<ellipse fill="none" stroke="#000000" cx="482.3217" cy="-90" rx="34.1658" ry="18"/>
<text text-anchor="middle" x="482.3217" y="-85.8" font-family="Times,serif" font-size="14.00" fill="#000000">Dafec</text>
</g>
<!-- Tereh&#45;&gt;Dafec -->
<g id="edge16" class="edge">
<title>Tereh&#45;&gt;Dafec</title>
<path fill="none" stroke="#000000" d="M482.3217,-143.8314C482.3217,-136.131 482.3217,-126.9743 482.3217,-118.4166"/>
<polygon fill="#000000" stroke="#000000" points="485.8218,-118.4132 482.3217,-108.4133 478.8218,-118.4133 485.8218,-118.4132"/>
</g>
<!-- Dawak -->
<g id="node19" class="node">
<title>Dawak</title>
<ellipse fill="none" stroke="#000000" cx="572.3217" cy="-90" rx="38.2626" ry="18"/>
<text text-anchor="middle" x="572.3217" y="-85.8" font-family="Times,serif" font-size="14.00" fill="#000000">Dawak</text>
</g>
<!-- Bofav&#45;&gt;Dawak -->
<g id="edge19" class="edge">
<title>Bofav&#45;&gt;Dawak</title>
<path fill="none" stroke="#000000" d="M572.3217,-143.8314C572.3217,-136.131 572.3217,-126.9743 572.3217,-118.4166"/>
<polygon fill="#000000" stroke="#000000" points="575.8218,-118.4132 572.3217,-108.4133 568.8218,-118.4133 575.8218,-118.4132"/>
</g>
<!-- Firec -->
<g id="node20" class="node">
<title>Firec</title>
<ellipse fill="none" stroke="#000000" cx="659.3217" cy="-90" rx="30.7539" ry="18"/>
<text text-anchor="middle" x="659.3217" y="-85.8" font-family="Times,serif" font-size="14.00" fill="#000000">Firec</text>
</g>
<!-- Bofav&#45;&gt;Firec -->
<g id="edge18" class="edge">
<title>Bofav&#45;&gt;Firec</title>
<path fill="none" stroke="#000000" d="M590.7722,-146.7307C603.2809,-136.3786 619.9817,-122.5573 633.767,-111.1488"/>
<polygon fill="#000000" stroke="#000000" points="636.0204,-113.827 641.4929,-104.7549 631.5574,-108.4342 636.0204,-113.827"/>
</g>
<!-- Mikud -->
<g id="node21" class="node">
<title>Mikud</title>
<ellipse fill="none" stroke="#000000" cx="745.3217" cy="-90" rx="36.5805" ry="18"/>
<text text-anchor="middle" x="745.3217" y="-85.8" font-family="Times,serif" font-size="14.00" fill="#000000">Mikud</text>
</g>
<!-- Sisoc&#45;&gt;Mikud -->
<g id="edge20" class="edge">
<title>Sisoc&#45;&gt;Mikud</title>
<path fill="none" stroke="#000000" d="M711.7491,-144.937C716.9874,-136.3654 723.4492,-125.7914 729.3005,-116.2165"/>
<polygon fill="#000000" stroke="#000000" points="732.4355,-117.7986 734.6636,-107.4407 726.4625,-114.1484 732.4355,-117.7986"/>
</g>
<!-- Nudov -->
<g id="node22" class="node">
<title>Nudov</title>
<ellipse fill="none" stroke="#000000" cx="37.3217" cy="-18" rx="37.1443" ry="18"/>
<text text-anchor="middle" x="37.3217" y="-13.8" font-family="Times,serif" font-size="14.00" fill="#000000">Nudov</text>
</g>
<!-- Dixen&#45;&gt;Nudov -->
<g id="edge21" class="edge">
<title>Dixen&#45;&gt;Nudov</title>
<path fill="none" stroke="#000000" d="M38.8171,-71.8314C38.6032,-64.131 38.3488,-54.9743 38.1111,-46.4166"/>
<polygon fill="#000000" stroke="#000000" points="41.6096,-46.3122 37.8332,-36.4133 34.6123,-46.5066 41.6096,-46.3122"/>
</g>
<!-- Celem -->
<g id="node23" class="node">
<title>Celem</title>
<ellipse fill="none" stroke="#000000" cx="129.3217" cy="-18" rx="36.4936" ry="18"/>
<text text-anchor="middle" x="129.3217" y="-13.8" font-family="Times,serif" font-size="14.00" fill="#000000">Celem</text>
</g>
<!-- Yevoz&#45;&gt;Celem -->
<g id="edge22" class="edge">
<title>Yevoz&#45;&gt;Celem</title>
<path fill="none" stroke="#000000" d="M129.3217,-71.8314C129.3217,-64.131 129.3217,-54.9743 129.3217,-46.4166"/>
<polygon fill="#000000" stroke="#000000" points="132.8218,-46.4132 129.3217,-36.4133 125.8218,-46.4133 132.8218,-46.4132"/>
</g>
<!-- Hiwec -->
<g id="node24" class="node">
<title>Hiwec</title>
<ellipse fill="none" stroke="#000000" cx="219.3217" cy="-18" rx="36.4742" ry="18"/>
<text text-anchor="middle" x="219.3217" y="-13.8" font-family="Times,serif" font-size="14.00" fill="#000000">Hiwec</text>
</g>
<!-- Yugoc&#45;&gt;Hiwec -->
<g id="edge24" class="edge">
<title>Yugoc&#45;&gt;Hiwec</title>
<path fill="none" stroke="#000000" d="M282.3452,-74.0209C271.3341,-64.2332 257.066,-51.5505 244.8911,-40.7284"/>
<polygon fill="#000000" stroke="#000000" points="247.0474,-37.9622 237.248,-33.9345 242.3969,-43.1941 247.0474,-37.9622"/>
</g>
<!-- Papes -->
<g id="node25" class="node">
<title>Papes</title>
<ellipse fill="none" stroke="#000000" cx="307.3217" cy="-18" rx="33.6247" ry="18"/>
<text text-anchor="middle" x="307.3217" y="-13.8" font-family="Times,serif" font-size="14.00" fill="#000000">Papes</text>
</g>
<!-- Yugoc&#45;&gt;Papes -->
<g id="edge23" class="edge">
<title>Yugoc&#45;&gt;Papes</title>
<path fill="none" stroke="#000000" d="M302.0881,-71.8314C302.8368,-64.131 303.727,-54.9743 304.559,-46.4166"/>
<polygon fill="#000000" stroke="#000000" points="308.0474,-46.7051 305.5316,-36.4133 301.0802,-46.0276 308.0474,-46.7051"/>
</g>
<!-- Qicev -->
<g id="node26" class="node">
<title>Qicev</title>
<ellipse fill="none" stroke="#000000" cx="393.3217" cy="-18" rx="34.1871" ry="18"/>
<text text-anchor="middle" x="393.3217" y="-13.8" font-family="Times,serif" font-size="14.00" fill="#000000">Qicev</text>
</g>
<!-- Dokak&#45;&gt;Qicev -->
<g id="edge25" class="edge">
<title>Dokak&#45;&gt;Qicev</title>
<path fill="none" stroke="#000000" d="M393.3217,-71.8314C393.3217,-64.131 393.3217,-54.9743 393.3217,-46.4166"/>
<polygon fill="#000000" stroke="#000000" points="396.8218,-46.4132 393.3217,-36.4133 389.8218,-46.4133 396.8218,-46.4132"/>
</g>
<!-- Duquh -->
<g id="node27" class="node">
<title>Duquh</title>
<ellipse fill="none" stroke="#000000" cx="482.3217" cy="-18" rx="37.1443" ry="18"/>
<text text-anchor="middle" x="482.3217" y="-13.8" font-family="Times,serif" font-size="14.00" fill="#000000">Duquh</text>
</g>
<!-- Dafec&#45;&gt;Duquh -->
<g id="edge26" class="edge">
<title>Dafec&#45;&gt;Duquh</title>
<path fill="none" stroke="#000000" d="M482.3217,-71.8314C482.3217,-64.131 482.3217,-54.9743 482.3217,-46.4166"/>
<polygon fill="#000000" stroke="#000000" points="485.8218,-46.4132 482.3217,-36.4133 478.8218,-46.4133 485.8218,-46.4132"/>
</g>
<!-- Tufap -->
<g id="node28" class="node">
<title>Tufap</title>
<ellipse fill="none" stroke="#000000" cx="572.3217" cy="-18" rx="34.1891" ry="18"/>
<text text-anchor="middle" x="572.3217" y="-13.8" font-family="Times,serif" font-size="14.00" fill="#000000">Tufap</text>
</g>
<!-- Dawak&#45;&gt;Tufap -->
<g id="edge27" class="edge">
<title>Dawak&#45;&gt;Tufap</title>
<path fill="none" stroke="#000000" d="M572.3217,-71.8314C572.3217,-64.131 572.3217,-54.9743 572.3217,-46.4166"/>
<polygon fill="#000000" stroke="#000000" points="575.8218,-46.4132 572.3217,-36.4133 568.8218,-46.4133 575.8218,-46.4132"/>
</g>
<!-- Bikav -->
<g id="node29" class="node">
<title>Bikav</title>
<ellipse fill="none" stroke="#000000" cx="659.3217" cy="-18" rx="34.2084" ry="18"/>
<text text-anchor="middle" x="659.3217" y="-13.8" font-family="Times,serif" font-size="14.00" fill="#000000">Bikav</text>
</g>
<!-- Firec&#45;&gt;Bikav -->
<g id="edge28" class="edge">
<title>Firec&#45;&gt;Bikav</title>
<path fill="none" stroke="#000000" d="M659.3217,-71.8314C659.3217,-64.131 659.3217,-54.9743 659.3217,-46.4166"/>
<polygon fill="#000000" stroke="#000000" points="662.8218,-46.4132 659.3217,-36.4133 655.8218,-46.4133 662.8218,-46.4132"/>
</g>
<!-- Tayir -->
<g id="node30" class="node">
<title>Tayir</title>
<ellipse fill="none" stroke="#000000" cx="744.3217" cy="-18" rx="31.8993" ry="18"/>
<text text-anchor="middle" x="744.3217" y="-13.8" font-family="Times,serif" font-size="14.00" fill="#000000">Tayir</text>
</g>
<!-- Mikud&#45;&gt;Tayir -->
<g id="edge30" class="edge">
<title>Mikud&#45;&gt;Tayir</title>
<path fill="none" stroke="#000000" d="M745.0694,-71.8314C744.9625,-64.131 744.8353,-54.9743 744.7164,-46.4166"/>
<polygon fill="#000000" stroke="#000000" points="748.2161,-46.3637 744.5775,-36.4133 741.2168,-46.4609 748.2161,-46.3637"/>
</g>
<!-- Miqul -->
<g id="node31" class="node">
<title>Miqul</title>
<ellipse fill="none" stroke="#000000" cx="829.3217" cy="-18" rx="34.7903" ry="18"/>
<text text-anchor="middle" x="829.3217" y="-13.8" font-family="Times,serif" font-size="14.00" fill="#000000">Miqul</text>
</g>
<!-- Mikud&#45;&gt;Miqul -->
<g id="edge29" class="edge">
<title>Mikud&#45;&gt;Miqul</title>
<path fill="none" stroke="#000000" d="M763.9641,-74.0209C775.6519,-64.0028 790.8782,-50.9517 803.6935,-39.9671"/>
<polygon fill="#000000" stroke="#000000" points="805.9933,-42.6056 811.3081,-33.4403 801.4377,-37.2908 805.9933,-42.6056"/>
</g>
</g>
</svg>
