<?xml version="1.0" encoding="UTF-8" standalone="no"?>
<!DOCTYPE svg PUBLIC "-//W3C//DTD SVG 1.1//EN"
 "http://www.w3.org/Graphics/SVG/1.1/DTD/svg11.dtd">
<!-- Generated by graphviz version 2.40.1 (20161225.0304)
 -->
<!-- Title: mytree Pages: 1 -->
<svg width="751pt" height="476pt"
 viewBox="0.00 0.00 751.39 476.00" xmlns="http://www.w3.org/2000/svg" xmlns:xlink="http://www.w3.org/1999/xlink">
<g id="graph0" class="graph" transform="scale(1 1) rotate(0) translate(4 472)">
<title>mytree</title>
<polygon fill="#ffffff" stroke="transparent" points="-4,4 -4,-472 747.3856,-472 747.3856,4 -4,4"/>
<!-- Cofen -->
<g id="node1" class="node">
<title>Cofen</title>
<ellipse fill="none" stroke="#000000" cx="261.4521" cy="-450" rx="34.7709" ry="18"/>
<text text-anchor="middle" x="261.4521" y="-445.8" font-family="Times,serif" font-size="14.00" fill="#000000">Cofen</text>
</g>
<!-- Guric -->
<g id="node2" class="node">
<title>Guric</title>
<ellipse fill="none" stroke="#000000" cx="261.4521" cy="-378" rx="33.043" ry="18"/>
<text text-anchor="middle" x="261.4521" y="-373.8" font-family="Times,serif" font-size="14.00" fill="#000000">Guric</text>
</g>
<!-- Cofen&#45;&gt;Guric -->
<g id="edge1" class="edge">
<title>Cofen&#45;&gt;Guric</title>
<path fill="none" stroke="#000000" d="M261.4521,-431.8314C261.4521,-424.131 261.4521,-414.9743 261.4521,-406.4166"/>
<polygon fill="#000000" stroke="#000000" points="264.9522,-406.4132 261.4521,-396.4133 257.9522,-406.4133 264.9522,-406.4132"/>
</g>
<!-- Daver -->
<g id="node3" class="node">
<title>Daver</title>
<ellipse fill="none" stroke="#000000" cx="172.4521" cy="-306" rx="34.7496" ry="18"/>
<text text-anchor="middle" x="172.4521" y="-301.8" font-family="Times,serif" font-size="14.00" fill="#000000">Daver</text>
</g>
<!-- Guric&#45;&gt;Daver -->
<g id="edge3" class="edge">
<title>Guric&#45;&gt;Daver</title>
<path fill="none" stroke="#000000" d="M242.5775,-362.7307C229.9518,-352.5166 213.1513,-338.9252 199.1599,-327.6064"/>
<polygon fill="#000000" stroke="#000000" points="201.2753,-324.8158 191.2995,-321.2473 196.8726,-330.2579 201.2753,-324.8158"/>
</g>
<!-- Golis -->
<g id="node4" class="node">
<title>Golis</title>
<ellipse fill="none" stroke="#000000" cx="307.4521" cy="-306" rx="31.9185" ry="18"/>
<text text-anchor="middle" x="307.4521" y="-301.8" font-family="Times,serif" font-size="14.00" fill="#000000">Golis</text>
</g>
<!-- Guric&#45;&gt;Golis -->
<g id="edge2" class="edge">
<title>Guric&#45;&gt;Golis</title>
<path fill="none" stroke="#000000" d="M272.3534,-360.937C277.9676,-352.1496 284.9262,-341.2579 291.1632,-331.4956"/>
<polygon fill="#000000" stroke="#000000" points="294.1945,-333.2519 296.629,-322.9405 288.2956,-329.4831 294.1945,-333.2519"/>
</g>
<!-- Juluh -->
<g id="node5" class="node">
<title>Juluh</title>
<ellipse fill="none" stroke="#000000" cx="84.4521" cy="-234" rx="31.9224" ry="18"/>
<text text-anchor="middle" x="84.4521" y="-229.8" font-family="Times,serif" font-size="14.00" fill="#000000">Juluh</text>
</g>
<!-- Daver&#45;&gt;Juluh -->
<g id="edge5" class="edge">
<title>Daver&#45;&gt;Juluh</title>
<path fill="none" stroke="#000000" d="M153.7895,-290.7307C141.2214,-280.4476 124.4693,-266.7414 110.5798,-255.3773"/>
<polygon fill="#000000" stroke="#000000" points="112.7419,-252.624 102.7859,-249.0004 108.3092,-258.0417 112.7419,-252.624"/>
</g>
<!-- Moxay -->
<g id="node6" class="node">
<title>Moxay</title>
<ellipse fill="none" stroke="#000000" cx="172.4521" cy="-234" rx="38.2857" ry="18"/>
<text text-anchor="middle" x="172.4521" y="-229.8" font-family="Times,serif" font-size="14.00" fill="#000000">Moxay</text>
</g>
<!-- Daver&#45;&gt;Moxay -->
<g id="edge4" class="edge">
<title>Daver&#45;&gt;Moxay</title>
<path fill="none" stroke="#000000" d="M172.4521,-287.8314C172.4521,-280.131 172.4521,-270.9743 172.4521,-262.4166"/>
<polygon fill="#000000" stroke="#000000" points="175.9522,-262.4132 172.4521,-252.4133 168.9522,-262.4133 175.9522,-262.4132"/>
</g>
<!-- Qinet -->
<g id="node7" class="node">
<title>Qinet</title>
<ellipse fill="none" stroke="#000000" cx="307.4521" cy="-234" rx="32.4808" ry="18"/>
<text text-anchor="middle" x="307.4521" y="-229.8" font-family="Times,serif" font-size="14.00" fill="#000000">Qinet</text>
</g>
<!-- Golis&#45;&gt;Qinet -->
<g id="edge7" class="edge">
<title>Golis&#45;&gt;Qinet</title>
<path fill="none" stroke="#000000" d="M307.4521,-287.8314C307.4521,-280.131 307.4521,-270.9743 307.4521,-262.4166"/>
<polygon fill="#000000" stroke="#000000" points="310.9522,-262.4132 307.4521,-252.4133 303.9522,-262.4133 310.9522,-262.4132"/>
</g>
<!-- Fesun -->
<g id="node8" class="node">
<title>Fesun</title>
<ellipse fill="none" stroke="#000000" cx="519.4521" cy="-234" rx="34.2084" ry="18"/>
<text text-anchor="middle" x="519.4521" y="-229.8" font-family="Times,serif" font-size="14.00" fill="#000000">Fesun</text>
</g>
<!-- Golis&#45;&gt;Fesun -->
<g id="edge6" class="edge">
<title>Golis&#45;&gt;Fesun</title>
<path fill="none" stroke="#000000" d="M335.1674,-296.5873C372.4698,-283.9185 438.9963,-261.3246 481.0881,-247.0293"/>
<polygon fill="#000000" stroke="#000000" points="482.3694,-250.2905 490.7126,-243.7606 480.1183,-243.6624 482.3694,-250.2905"/>
</g>
<!-- Vopeg -->
<g id="node9" class="node">
<title>Vopeg</title>
<ellipse fill="none" stroke="#000000" cx="84.4521" cy="-162" rx="36.5613" ry="18"/>
<text text-anchor="middle" x="84.4521" y="-157.8" font-family="Times,serif" font-size="14.00" fill="#000000">Vopeg</text>
</g>
<!-- Juluh&#45;&gt;Vopeg -->
<g id="edge8" class="edge">
<title>Juluh&#45;&gt;Vopeg</title>
<path fill="none" stroke="#000000" d="M84.4521,-215.8314C84.4521,-208.131 84.4521,-198.9743 84.4521,-190.4166"/>
<polygon fill="#000000" stroke="#000000" points="87.9522,-190.4132 84.4521,-180.4133 80.9522,-190.4133 87.9522,-190.4132"/>
</g>
<!-- Galit -->
<g id="node10" class="node">
<title>Galit</title>
<ellipse fill="none" stroke="#000000" cx="170.4521" cy="-162" rx="30.1919" ry="18"/>
<text text-anchor="middle" x="170.4521" y="-157.8" font-family="Times,serif" font-size="14.00" fill="#000000">Galit</text>
</g>
<!-- Moxay&#45;&gt;Galit -->
<g id="edge9" class="edge">
<title>Moxay&#45;&gt;Galit</title>
<path fill="none" stroke="#000000" d="M171.9474,-215.8314C171.7335,-208.131 171.4791,-198.9743 171.2414,-190.4166"/>
<polygon fill="#000000" stroke="#000000" points="174.74,-190.3122 170.9635,-180.4133 167.7427,-190.5066 174.74,-190.3122"/>
</g>
<!-- Hawob -->
<g id="node11" class="node">
<title>Hawob</title>
<ellipse fill="none" stroke="#000000" cx="257.4521" cy="-162" rx="38.8459" ry="18"/>
<text text-anchor="middle" x="257.4521" y="-157.8" font-family="Times,serif" font-size="14.00" fill="#000000">Hawob</text>
</g>
<!-- Qinet&#45;&gt;Hawob -->
<g id="edge11" class="edge">
<title>Qinet&#45;&gt;Hawob</title>
<path fill="none" stroke="#000000" d="M295.6028,-216.937C289.5889,-208.277 282.1556,-197.5731 275.4526,-187.9207"/>
<polygon fill="#000000" stroke="#000000" points="278.1424,-185.658 269.5636,-179.4407 272.3928,-189.6508 278.1424,-185.658"/>
</g>
<!-- Xuxeb -->
<g id="node12" class="node">
<title>Xuxeb</title>
<ellipse fill="none" stroke="#000000" cx="351.4521" cy="-162" rx="36.5613" ry="18"/>
<text text-anchor="middle" x="351.4521" y="-157.8" font-family="Times,serif" font-size="14.00" fill="#000000">Xuxeb</text>
</g>
<!-- Qinet&#45;&gt;Xuxeb -->
<g id="edge10" class="edge">
<title>Qinet&#45;&gt;Xuxeb</title>
<path fill="none" stroke="#000000" d="M317.8795,-216.937C323.1177,-208.3654 329.5796,-197.7914 335.4309,-188.2165"/>
<polygon fill="#000000" stroke="#000000" points="338.5658,-189.7986 340.7939,-179.4407 332.5928,-186.1484 338.5658,-189.7986"/>
</g>
<!-- Wacuw -->
<g id="node13" class="node">
<title>Wacuw</title>
<ellipse fill="none" stroke="#000000" cx="519.4521" cy="-162" rx="40.5499" ry="18"/>
<text text-anchor="middle" x="519.4521" y="-157.8" font-family="Times,serif" font-size="14.00" fill="#000000">Wacuw</text>
</g>
<!-- Fesun&#45;&gt;Wacuw -->
<g id="edge13" class="edge">
<title>Fesun&#45;&gt;Wacuw</title>
<path fill="none" stroke="#000000" d="M519.4521,-215.8314C519.4521,-208.131 519.4521,-198.9743 519.4521,-190.4166"/>
<polygon fill="#000000" stroke="#000000" points="522.9522,-190.4132 519.4521,-180.4133 515.9522,-190.4133 522.9522,-190.4132"/>
</g>
<!-- Liyuh -->
<g id="node14" class="node">
<title>Liyuh</title>
<ellipse fill="none" stroke="#000000" cx="612.4521" cy="-162" rx="34.2104" ry="18"/>
<text text-anchor="middle" x="612.4521" y="-157.8" font-family="Times,serif" font-size="14.00" fill="#000000">Liyuh</text>
</g>
<!-- Fesun&#45;&gt;Liyuh -->
<g id="edge12" class="edge">
<title>Fesun&#45;&gt;Liyuh</title>
<path fill="none" stroke="#000000" d="M538.7217,-219.0816C552.1889,-208.6554 570.361,-194.5866 585.2944,-183.0253"/>
<polygon fill="#000000" stroke="#000000" points="587.4425,-185.7886 593.2071,-176.8993 583.1572,-180.2536 587.4425,-185.7886"/>
</g>
<!-- Ceney -->
<g id="node15" class="node">
<title>Ceney</title>
<ellipse fill="none" stroke="#000000" cx="84.4521" cy="-90" rx="35.9154" ry="18"/>
<text text-anchor="middle" x="84.4521" y="-85.8" font-family="Times,serif" font-size="14.00" fill="#000000">Ceney</text>
</g>
<!-- Vopeg&#45;&gt;Ceney -->
<g id="edge14" class="edge">
<title>Vopeg&#45;&gt;Ceney</title>
<path fill="none" stroke="#000000" d="M84.4521,-143.8314C84.4521,-136.131 84.4521,-126.9743 84.4521,-118.4166"/>
<polygon fill="#000000" stroke="#000000" points="87.9522,-118.4132 84.4521,-108.4133 80.9522,-118.4133 87.9522,-118.4132"/>
</g>
<!-- Silah -->
<g id="node16" class="node">
<title>Silah</title>
<ellipse fill="none" stroke="#000000" cx="170.4521" cy="-90" rx="30.7751" ry="18"/>
<text text-anchor="middle" x="170.4521" y="-85.8" font-family="Times,serif" font-size="14.00" fill="#000000">Silah</text>
</g>
<!-- Galit&#45;&gt;Silah -->
<g id="edge15" class="edge">
<title>Galit&#45;&gt;Silah</title>
<path fill="none" stroke="#000000" d="M170.4521,-143.8314C170.4521,-136.131 170.4521,-126.9743 170.4521,-118.4166"/>
<polygon fill="#000000" stroke="#000000" points="173.9522,-118.4132 170.4521,-108.4133 166.9522,-118.4133 173.9522,-118.4132"/>
</g>
<!-- Pimiy -->
<g id="node17" class="node">
<title>Pimiy</title>
<ellipse fill="none" stroke="#000000" cx="255.4521" cy="-90" rx="34.2259" ry="18"/>
<text text-anchor="middle" x="255.4521" y="-85.8" font-family="Times,serif" font-size="14.00" fill="#000000">Pimiy</text>
</g>
<!-- Hawob&#45;&gt;Pimiy -->
<g id="edge16" class="edge">
<title>Hawob&#45;&gt;Pimiy</title>
<path fill="none" stroke="#000000" d="M256.9474,-143.8314C256.7335,-136.131 256.4791,-126.9743 256.2414,-118.4166"/>
<polygon fill="#000000" stroke="#000000" points="259.74,-118.3122 255.9635,-108.4133 252.7427,-118.5066 259.74,-118.3122"/>
</g>
<!-- Voqic -->
<g id="node18" class="node">
<title>Voqic</title>
<ellipse fill="none" stroke="#000000" cx="342.4521" cy="-90" rx="34.7709" ry="18"/>
<text text-anchor="middle" x="342.4521" y="-85.8" font-family="Times,serif" font-size="14.00" fill="#000000">Voqic</text>
</g>
<!-- Xuxeb&#45;&gt;Voqic -->
<g id="edge18" class="edge">
<title>Xuxeb&#45;&gt;Voqic</title>
<path fill="none" stroke="#000000" d="M349.181,-143.8314C348.2184,-136.131 347.0739,-126.9743 346.0041,-118.4166"/>
<polygon fill="#000000" stroke="#000000" points="349.4671,-117.9019 344.7537,-108.4133 342.5212,-118.7702 349.4671,-117.9019"/>
</g>
<!-- Piwog -->
<g id="node19" class="node">
<title>Piwog</title>
<ellipse fill="none" stroke="#000000" cx="430.4521" cy="-90" rx="35.9348" ry="18"/>
<text text-anchor="middle" x="430.4521" y="-85.8" font-family="Times,serif" font-size="14.00" fill="#000000">Piwog</text>
</g>
<!-- Xuxeb&#45;&gt;Piwog -->
<g id="edge17" class="edge">
<title>Xuxeb&#45;&gt;Piwog</title>
<path fill="none" stroke="#000000" d="M368.9847,-146.0209C379.724,-136.2332 393.6397,-123.5505 405.514,-112.7284"/>
<polygon fill="#000000" stroke="#000000" points="407.9351,-115.2574 412.9684,-105.9345 403.2198,-110.0837 407.9351,-115.2574"/>
</g>
<!-- Cuyav -->
<g id="node20" class="node">
<title>Cuyav</title>
<ellipse fill="none" stroke="#000000" cx="520.4521" cy="-90" rx="36.4994" ry="18"/>
<text text-anchor="middle" x="520.4521" y="-85.8" font-family="Times,serif" font-size="14.00" fill="#000000">Cuyav</text>
</g>
<!-- Wacuw&#45;&gt;Cuyav -->
<g id="edge19" class="edge">
<title>Wacuw&#45;&gt;Cuyav</title>
<path fill="none" stroke="#000000" d="M519.7044,-143.8314C519.8114,-136.131 519.9385,-126.9743 520.0574,-118.4166"/>
<polygon fill="#000000" stroke="#000000" points="523.557,-118.4609 520.1963,-108.4133 516.5577,-118.3637 523.557,-118.4609"/>
</g>
<!-- Hadoc -->
<g id="node21" class="node">
<title>Hadoc</title>
<ellipse fill="none" stroke="#000000" cx="611.4521" cy="-90" rx="36.478" ry="18"/>
<text text-anchor="middle" x="611.4521" y="-85.8" font-family="Times,serif" font-size="14.00" fill="#000000">Hadoc</text>
</g>
<!-- Liyuh&#45;&gt;Hadoc -->
<g id="edge21" class="edge">
<title>Liyuh&#45;&gt;Hadoc</title>
<path fill="none" stroke="#000000" d="M612.1997,-143.8314C612.0928,-136.131 611.9656,-126.9743 611.8467,-118.4166"/>
<polygon fill="#000000" stroke="#000000" points="615.3464,-118.3637 611.7078,-108.4133 608.3471,-118.4609 615.3464,-118.3637"/>
</g>
<!-- Vexay -->
<g id="node22" class="node">
<title>Vexay</title>
<ellipse fill="none" stroke="#000000" cx="703.4521" cy="-90" rx="36.478" ry="18"/>
<text text-anchor="middle" x="703.4521" y="-85.8" font-family="Times,serif" font-size="14.00" fill="#000000">Vexay</text>
</g>
<!-- Liyuh&#45;&gt;Vexay -->
<g id="edge20" class="edge">
<title>Liyuh&#45;&gt;Vexay</title>
<path fill="none" stroke="#000000" d="M631.7508,-146.7307C644.6602,-136.5166 661.8383,-122.9252 676.144,-111.6064"/>
<polygon fill="#000000" stroke="#000000" points="678.5106,-114.197 684.1811,-105.2473 674.1672,-108.7074 678.5106,-114.197"/>
</g>
<!-- Wemef -->
<g id="node23" class="node">
<title>Wemef</title>
<ellipse fill="none" stroke="#000000" cx="39.4521" cy="-18" rx="39.4042" ry="18"/>
<text text-anchor="middle" x="39.4521" y="-13.8" font-family="Times,serif" font-size="14.00" fill="#000000">Wemef</text>
</g>
<!-- Ceney&#45;&gt;Wemef -->
<g id="edge23" class="edge">
<title>Ceney&#45;&gt;Wemef</title>
<path fill="none" stroke="#000000" d="M73.5588,-72.5708C68.2366,-64.0553 61.7213,-53.6308 55.8164,-44.183"/>
<polygon fill="#000000" stroke="#000000" points="58.669,-42.1432 50.401,-35.5182 52.733,-45.8532 58.669,-42.1432"/>
</g>
<!-- Juqof -->
<g id="node24" class="node">
<title>Juqof</title>
<ellipse fill="none" stroke="#000000" cx="129.4521" cy="-18" rx="32.4846" ry="18"/>
<text text-anchor="middle" x="129.4521" y="-13.8" font-family="Times,serif" font-size="14.00" fill="#000000">Juqof</text>
</g>
<!-- Ceney&#45;&gt;Juqof -->
<g id="edge22" class="edge">
<title>Ceney&#45;&gt;Juqof</title>
<path fill="none" stroke="#000000" d="M95.3453,-72.5708C100.7069,-63.9922 107.2794,-53.4762 113.2188,-43.9732"/>
<polygon fill="#000000" stroke="#000000" points="116.3271,-45.6037 118.6591,-35.2687 110.3911,-41.8937 116.3271,-45.6037"/>
</g>
<!-- Keriq -->
<g id="node25" class="node">
<title>Keriq</title>
<ellipse fill="none" stroke="#000000" cx="255.4521" cy="-18" rx="33.043" ry="18"/>
<text text-anchor="middle" x="255.4521" y="-13.8" font-family="Times,serif" font-size="14.00" fill="#000000">Keriq</text>
</g>
<!-- Pimiy&#45;&gt;Keriq -->
<g id="edge24" class="edge">
<title>Pimiy&#45;&gt;Keriq</title>
<path fill="none" stroke="#000000" d="M255.4521,-71.8314C255.4521,-64.131 255.4521,-54.9743 255.4521,-46.4166"/>
<polygon fill="#000000" stroke="#000000" points="258.9522,-46.4132 255.4521,-36.4133 251.9522,-46.4133 258.9522,-46.4132"/>
</g>
<!-- Suzaf -->
<g id="node26" class="node">
<title>Suzaf</title>
<ellipse fill="none" stroke="#000000" cx="342.4521" cy="-18" rx="33.043" ry="18"/>
<text text-anchor="middle" x="342.4521" y="-13.8" font-family="Times,serif" font-size="14.00" fill="#000000">Suzaf</text>
</g>
<!-- Voqic&#45;&gt;Suzaf -->
<g id="edge25" class="edge">
<title>Voqic&#45;&gt;Suzaf</title>
<path fill="none" stroke="#000000" d="M342.4521,-71.8314C342.4521,-64.131 342.4521,-54.9743 342.4521,-46.4166"/>
<polygon fill="#000000" stroke="#000000" points="345.9522,-46.4132 342.4521,-36.4133 338.9522,-46.4133 345.9522,-46.4132"/>
</g>
<!-- Rovod -->
<g id="node27" class="node">
<title>Rovod</title>
<ellipse fill="none" stroke="#000000" cx="430.4521" cy="-18" rx="36.5824" ry="18"/>
<text text-anchor="middle" x="430.4521" y="-13.8" font-family="Times,serif" font-size="14.00" fill="#000000">Rovod</text>
</g>
<!-- Piwog&#45;&gt;Rovod -->
<g id="edge26" class="edge">
<title>Piwog&#45;&gt;Rovod</title>
<path fill="none" stroke="#000000" d="M430.4521,-71.8314C430.4521,-64.131 430.4521,-54.9743 430.4521,-46.4166"/>
<polygon fill="#000000" stroke="#000000" points="433.9522,-46.4132 430.4521,-36.4133 426.9522,-46.4133 433.9522,-46.4132"/>
</g>
<!-- Geval -->
<g id="node28" class="node">
<title>Geval</title>
<ellipse fill="none" stroke="#000000" cx="520.4521" cy="-18" rx="34.1871" ry="18"/>
<text text-anchor="middle" x="520.4521" y="-13.8" font-family="Times,serif" font-size="14.00" fill="#000000">Geval</text>
</g>
<!-- Cuyav&#45;&gt;Geval -->
<g id="edge27" class="edge">
<title>Cuyav&#45;&gt;Geval</title>
<path fill="none" stroke="#000000" d="M520.4521,-71.8314C520.4521,-64.131 520.4521,-54.9743 520.4521,-46.4166"/>
<polygon fill="#000000" stroke="#000000" points="523.9522,-46.4132 520.4521,-36.4133 516.9522,-46.4133 523.9522,-46.4132"/>
</g>
<!-- Covob -->
<g id="node29" class="node">
<title>Covob</title>
<ellipse fill="none" stroke="#000000" cx="610.4521" cy="-18" rx="36.5824" ry="18"/>
<text text-anchor="middle" x="610.4521" y="-13.8" font-family="Times,serif" font-size="14.00" fill="#000000">Covob</text>
</g>
<!-- Hadoc&#45;&gt;Covob -->
<g id="edge28" class="edge">
<title>Hadoc&#45;&gt;Covob</title>
<path fill="none" stroke="#000000" d="M611.1997,-71.8314C611.0928,-64.131 610.9656,-54.9743 610.8467,-46.4166"/>
<polygon fill="#000000" stroke="#000000" points="614.3464,-46.3637 610.7078,-36.4133 607.3471,-46.4609 614.3464,-46.3637"/>
</g>
<!-- Tumuq -->
<g id="node30" class="node">
<title>Tumuq</title>
<ellipse fill="none" stroke="#000000" cx="704.4521" cy="-18" rx="38.8671" ry="18"/>
<text text-anchor="middle" x="704.4521" y="-13.8" font-family="Times,serif" font-size="14.00" fill="#000000">Tumuq</text>
</g>
<!-- Vexay&#45;&gt;Tumuq -->
<g id="edge29" class="edge">
<title>Vexay&#45;&gt;Tumuq</title>
<path fill="none" stroke="#000000" d="M703.7044,-71.8314C703.8114,-64.131 703.9385,-54.9743 704.0574,-46.4166"/>
<polygon fill="#000000" stroke="#000000" points="707.557,-46.4609 704.1963,-36.4133 700.5577,-46.3637 707.557,-46.4609"/>
</g>
</g>
</svg>
