<?xml version="1.0" encoding="UTF-8" standalone="no"?>
<!DOCTYPE svg PUBLIC "-//W3C//DTD SVG 1.1//EN"
 "http://www.w3.org/Graphics/SVG/1.1/DTD/svg11.dtd">
<!-- Generated by graphviz version 2.40.1 (20161225.0304)
 -->
<!-- Title: mytree Pages: 1 -->
<svg width="260pt" height="476pt"
 viewBox="0.00 0.00 260.17 476.00" xmlns="http://www.w3.org/2000/svg" xmlns:xlink="http://www.w3.org/1999/xlink">
<g id="graph0" class="graph" transform="scale(1 1) rotate(0) translate(4 472)">
<title>mytree</title>
<polygon fill="#ffffff" stroke="transparent" points="-4,4 -4,-472 256.1727,-472 256.1727,4 -4,4"/>
<!-- Nimom -->
<g id="node1" class="node">
<title>Nimom</title>
<ellipse fill="none" stroke="#000000" cx="172.4646" cy="-450" rx="40.5886" ry="18"/>
<text text-anchor="middle" x="172.4646" y="-445.8" font-family="Times,serif" font-size="14.00" fill="#000000">Nimom</text>
</g>
<!-- Femut -->
<g id="node2" class="node">
<title>Femut</title>
<ellipse fill="none" stroke="#000000" cx="128.4646" cy="-378" rx="35.9329" ry="18"/>
<text text-anchor="middle" x="128.4646" y="-373.8" font-family="Times,serif" font-size="14.00" fill="#000000">Femut</text>
</g>
<!-- Nimom&#45;&gt;Femut -->
<g id="edge2" class="edge">
<title>Nimom&#45;&gt;Femut</title>
<path fill="none" stroke="#000000" d="M161.8134,-432.5708C156.571,-423.9922 150.1445,-413.4762 144.3371,-403.9732"/>
<polygon fill="#000000" stroke="#000000" points="147.2187,-401.9764 139.0177,-395.2687 141.2458,-405.6266 147.2187,-401.9764"/>
</g>
<!-- Gahat -->
<g id="node3" class="node">
<title>Gahat</title>
<ellipse fill="none" stroke="#000000" cx="216.4646" cy="-378" rx="34.1871" ry="18"/>
<text text-anchor="middle" x="216.4646" y="-373.8" font-family="Times,serif" font-size="14.00" fill="#000000">Gahat</text>
</g>
<!-- Nimom&#45;&gt;Gahat -->
<g id="edge1" class="edge">
<title>Nimom&#45;&gt;Gahat</title>
<path fill="none" stroke="#000000" d="M183.1158,-432.5708C188.3583,-423.9922 194.7847,-413.4762 200.5921,-403.9732"/>
<polygon fill="#000000" stroke="#000000" points="203.6835,-405.6266 205.9115,-395.2687 197.7105,-401.9764 203.6835,-405.6266"/>
</g>
<!-- Xuwoy -->
<g id="node4" class="node">
<title>Xuwoy</title>
<ellipse fill="none" stroke="#000000" cx="39.4646" cy="-306" rx="39.4293" ry="18"/>
<text text-anchor="middle" x="39.4646" y="-301.8" font-family="Times,serif" font-size="14.00" fill="#000000">Xuwoy</text>
</g>
<!-- Femut&#45;&gt;Xuwoy -->
<g id="edge4" class="edge">
<title>Femut&#45;&gt;Xuwoy</title>
<path fill="none" stroke="#000000" d="M109.1529,-362.3771C96.8751,-352.4445 80.7829,-339.4261 67.156,-328.402"/>
<polygon fill="#000000" stroke="#000000" points="69.0218,-325.4095 59.0459,-321.8411 64.6191,-330.8517 69.0218,-325.4095"/>
</g>
<!-- Roxif -->
<g id="node5" class="node">
<title>Roxif</title>
<ellipse fill="none" stroke="#000000" cx="129.4646" cy="-306" rx="33.0643" ry="18"/>
<text text-anchor="middle" x="129.4646" y="-301.8" font-family="Times,serif" font-size="14.00" fill="#000000">Roxif</text>
</g>
<!-- Femut&#45;&gt;Roxif -->
<g id="edge3" class="edge">
<title>Femut&#45;&gt;Roxif</title>
<path fill="none" stroke="#000000" d="M128.717,-359.8314C128.8239,-352.131 128.9511,-342.9743 129.0699,-334.4166"/>
<polygon fill="#000000" stroke="#000000" points="132.5696,-334.4609 129.2089,-324.4133 125.5702,-334.3637 132.5696,-334.4609"/>
</g>
<!-- Goqix -->
<g id="node6" class="node">
<title>Goqix</title>
<ellipse fill="none" stroke="#000000" cx="216.4646" cy="-306" rx="35.3548" ry="18"/>
<text text-anchor="middle" x="216.4646" y="-301.8" font-family="Times,serif" font-size="14.00" fill="#000000">Goqix</text>
</g>
<!-- Gahat&#45;&gt;Goqix -->
<g id="edge5" class="edge">
<title>Gahat&#45;&gt;Goqix</title>
<path fill="none" stroke="#000000" d="M216.4646,-359.8314C216.4646,-352.131 216.4646,-342.9743 216.4646,-334.4166"/>
<polygon fill="#000000" stroke="#000000" points="219.9647,-334.4132 216.4646,-324.4133 212.9647,-334.4133 219.9647,-334.4132"/>
</g>
<!-- Bineg -->
<g id="node7" class="node">
<title>Bineg</title>
<ellipse fill="none" stroke="#000000" cx="39.4646" cy="-234" rx="34.2084" ry="18"/>
<text text-anchor="middle" x="39.4646" y="-229.8" font-family="Times,serif" font-size="14.00" fill="#000000">Bineg</text>
</g>
<!-- Xuwoy&#45;&gt;Bineg -->
<g id="edge6" class="edge">
<title>Xuwoy&#45;&gt;Bineg</title>
<path fill="none" stroke="#000000" d="M39.4646,-287.8314C39.4646,-280.131 39.4646,-270.9743 39.4646,-262.4166"/>
<polygon fill="#000000" stroke="#000000" points="42.9647,-262.4132 39.4646,-252.4133 35.9647,-262.4133 42.9647,-262.4132"/>
</g>
<!-- Suciq -->
<g id="node8" class="node">
<title>Suciq</title>
<ellipse fill="none" stroke="#000000" cx="216.4646" cy="-234" rx="33.0643" ry="18"/>
<text text-anchor="middle" x="216.4646" y="-229.8" font-family="Times,serif" font-size="14.00" fill="#000000">Suciq</text>
</g>
<!-- Goqix&#45;&gt;Suciq -->
<g id="edge7" class="edge">
<title>Goqix&#45;&gt;Suciq</title>
<path fill="none" stroke="#000000" d="M216.4646,-287.8314C216.4646,-280.131 216.4646,-270.9743 216.4646,-262.4166"/>
<polygon fill="#000000" stroke="#000000" points="219.9647,-262.4132 216.4646,-252.4133 212.9647,-262.4133 219.9647,-262.4132"/>
</g>
<!-- Towir -->
<g id="node9" class="node">
<title>Towir</title>
<ellipse fill="none" stroke="#000000" cx="39.4646" cy="-162" rx="34.769" ry="18"/>
<text text-anchor="middle" x="39.4646" y="-157.8" font-family="Times,serif" font-size="14.00" fill="#000000">Towir</text>
</g>
<!-- Bineg&#45;&gt;Towir -->
<g id="edge9" class="edge">
<title>Bineg&#45;&gt;Towir</title>
<path fill="none" stroke="#000000" d="M39.4646,-215.8314C39.4646,-208.131 39.4646,-198.9743 39.4646,-190.4166"/>
<polygon fill="#000000" stroke="#000000" points="42.9647,-190.4132 39.4646,-180.4133 35.9647,-190.4133 42.9647,-190.4132"/>
</g>
<!-- Sudoq -->
<g id="node10" class="node">
<title>Sudoq</title>
<ellipse fill="none" stroke="#000000" cx="127.4646" cy="-162" rx="35.9387" ry="18"/>
<text text-anchor="middle" x="127.4646" y="-157.8" font-family="Times,serif" font-size="14.00" fill="#000000">Sudoq</text>
</g>
<!-- Bineg&#45;&gt;Sudoq -->
<g id="edge8" class="edge">
<title>Bineg&#45;&gt;Sudoq</title>
<path fill="none" stroke="#000000" d="M58.1272,-218.7307C70.5266,-208.5856 86.9984,-195.1087 100.776,-183.8361"/>
<polygon fill="#000000" stroke="#000000" points="103.0024,-186.5368 108.5256,-177.4956 98.5697,-181.1191 103.0024,-186.5368"/>
</g>
<!-- Papeh -->
<g id="node11" class="node">
<title>Papeh</title>
<ellipse fill="none" stroke="#000000" cx="216.4646" cy="-162" rx="34.7709" ry="18"/>
<text text-anchor="middle" x="216.4646" y="-157.8" font-family="Times,serif" font-size="14.00" fill="#000000">Papeh</text>
</g>
<!-- Suciq&#45;&gt;Papeh -->
<g id="edge10" class="edge">
<title>Suciq&#45;&gt;Papeh</title>
<path fill="none" stroke="#000000" d="M216.4646,-215.8314C216.4646,-208.131 216.4646,-198.9743 216.4646,-190.4166"/>
<polygon fill="#000000" stroke="#000000" points="219.9647,-190.4132 216.4646,-180.4133 212.9647,-190.4133 219.9647,-190.4132"/>
</g>
<!-- Tunuf -->
<g id="node12" class="node">
<title>Tunuf</title>
<ellipse fill="none" stroke="#000000" cx="216.4646" cy="-90" rx="34.7728" ry="18"/>
<text text-anchor="middle" x="216.4646" y="-85.8" font-family="Times,serif" font-size="14.00" fill="#000000">Tunuf</text>
</g>
<!-- Papeh&#45;&gt;Tunuf -->
<g id="edge11" class="edge">
<title>Papeh&#45;&gt;Tunuf</title>
<path fill="none" stroke="#000000" d="M216.4646,-143.8314C216.4646,-136.131 216.4646,-126.9743 216.4646,-118.4166"/>
<polygon fill="#000000" stroke="#000000" points="219.9647,-118.4132 216.4646,-108.4133 212.9647,-118.4133 219.9647,-118.4132"/>
</g>
<!-- Zexuq -->
<g id="node13" class="node">
<title>Zexuq</title>
<ellipse fill="none" stroke="#000000" cx="216.4646" cy="-18" rx="35.9174" ry="18"/>
<text text-anchor="middle" x="216.4646" y="-13.8" font-family="Times,serif" font-size="14.00" fill="#000000">Zexuq</text>
</g>
<!-- Tunuf&#45;&gt;Zexuq -->
<g id="edge12" class="edge">
<title>Tunuf&#45;&gt;Zexuq</title>
<path fill="none" stroke="#000000" d="M216.4646,-71.8314C216.4646,-64.131 216.4646,-54.9743 216.4646,-46.4166"/>
<polygon fill="#000000" stroke="#000000" points="219.9647,-46.4132 216.4646,-36.4133 212.9647,-46.4133 219.9647,-46.4132"/>
</g>
</g>
</svg>
